<svg width="144" height="46" viewBox="0 0 144 46" fill="none" xmlns="http://www.w3.org/2000/svg">
<rect width="144" height="46" rx="23" fill="#316FAF"/>
<path d="M22.37 27.5H20.75V17.45H22.37V21.74H25.415L28.355 17.45H30.275L26.765 22.415L30.26 27.5H28.34L25.445 23.3H22.37V27.5ZM36.0707 27.65C32.9207 27.65 30.8357 25.61 30.8357 22.475C30.8357 19.34 32.9207 17.3 36.0707 17.3C39.2507 17.3 41.3207 19.34 41.3207 22.475C41.3207 25.61 39.2507 27.65 36.0707 27.65ZM36.0707 26.09C38.4557 26.09 39.6107 24.98 39.6107 22.475C39.6107 19.97 38.4557 18.845 36.0707 18.845C33.6857 18.845 32.5457 19.97 32.5457 22.475C32.5457 24.98 33.6857 26.09 36.0707 26.09ZM44.1376 27.5H42.5176V17.45H44.2576L48.7576 23.33L50.0626 25.205H50.1826L50.1076 23.39V17.45H51.7276V27.5H49.9876L45.4576 21.635L44.1976 19.865H44.0776L44.1376 21.605V27.5ZM58.2206 27.5H56.6156V18.905H52.6556V17.45H62.1656V18.905H58.2206V27.5ZM64.1633 27.5H62.3633L66.8483 17.45H69.1283L73.6133 27.5H71.7833L70.6283 24.89H65.3183L64.1633 27.5ZM67.3283 20.375L65.9633 23.435H69.9833L68.6183 20.375L68.0333 18.95H67.9133L67.3283 20.375ZM75.9833 27.5H74.3633V17.45H75.9833V21.74H79.0283L81.9683 17.45H83.8883L80.3783 22.415L83.8733 27.5H81.9533L79.0583 23.3H75.9833V27.5ZM89.744 27.5H88.139V18.905H84.179V17.45H93.689V18.905H89.744V27.5Z" fill="white"/>
<path d="M109.922 28.3228L108.744 27.1443L115.815 20.0732L109.333 20.0732V18.3998H118.667V27.7336H116.993L116.993 21.2518L109.922 28.3228Z" fill="white"/>
</svg>
