<svg width="252" height="57" viewBox="0 0 252 57" fill="none" xmlns="http://www.w3.org/2000/svg">
<rect y="0.5" width="252" height="56" rx="28" fill="#316FAF"/>
<path d="M34.37 33H32.75V22.95H37.67C39.905 22.95 41.435 24.225 41.435 26.46C41.435 28.68 39.905 29.97 37.67 29.97H34.37V33ZM37.52 24.405H34.37V28.515H37.52C39.035 28.515 39.815 27.945 39.815 26.46C39.815 24.975 39.035 24.405 37.52 24.405ZM47.3383 33.15C44.1883 33.15 42.1033 31.11 42.1033 27.975C42.1033 24.84 44.1883 22.8 47.3383 22.8C50.5183 22.8 52.5883 24.84 52.5883 27.975C52.5883 31.11 50.5183 33.15 47.3383 33.15ZM47.3383 31.59C49.7233 31.59 50.8783 30.48 50.8783 27.975C50.8783 25.47 49.7233 24.345 47.3383 24.345C44.9533 24.345 43.8133 25.47 43.8133 27.975C43.8133 30.48 44.9533 31.59 47.3383 31.59ZM62.6352 33H53.5302V31.545L60.0852 24.525V24.405H53.7252V22.95H62.4702V24.405L55.7952 31.425V31.545H62.6352V33ZM65.4979 33H63.8779V22.95H65.6179L70.1179 28.83L71.4229 30.705H71.5429L71.4679 28.89V22.95H73.0879V33H71.3479L66.8179 27.135L65.5579 25.365H65.4379L65.4979 27.105V33ZM75.6359 33H73.8359L78.3209 22.95H80.6009L85.0859 33H83.2559L82.1009 30.39H76.7909L75.6359 33ZM78.8009 25.875L77.4359 28.935H81.4559L80.0909 25.875L79.5059 24.45H79.3859L78.8009 25.875ZM89.6159 33.15C86.5709 33.15 85.3859 31.545 85.3859 29.175V28.71H87.0959V29.19C87.0959 30.84 87.6509 31.59 89.6159 31.59C91.5809 31.59 92.1659 30.855 92.1659 29.265V22.95H93.8609V29.25C93.8609 31.56 92.6909 33.15 89.6159 33.15ZM102.077 33.15C99.0773 33.15 97.5473 31.83 97.5473 29.715V29.625H99.1673V29.865C99.1673 31.065 99.8723 31.665 102.077 31.665C103.997 31.665 104.672 31.245 104.672 30.3C104.672 29.43 104.162 29.1 102.887 28.86L100.427 28.455C98.7323 28.155 97.5323 27.375 97.5323 25.725C97.5323 24.27 98.7323 22.8 101.852 22.8C104.792 22.8 106.127 24.27 106.127 26.235V26.325H104.522V26.13C104.522 24.9 103.787 24.285 101.702 24.285C99.8723 24.285 99.1523 24.735 99.1523 25.635C99.1523 26.505 99.6623 26.79 100.847 27.045L103.292 27.465C105.302 27.825 106.292 28.74 106.292 30.21C106.292 31.74 105.047 33.15 102.077 33.15ZM116.292 33H107.187V31.545L113.742 24.525V24.405H107.382V22.95H116.127V24.405L109.452 31.425V31.545H116.292V33ZM122.425 33.15C119.305 33.15 117.235 31.11 117.235 27.975C117.235 24.84 119.305 22.8 122.425 22.8C125.26 22.8 127.24 24.3 127.24 26.7V26.91H125.455V26.7C125.455 25.17 124.48 24.345 122.44 24.345C120.085 24.345 118.945 25.47 118.945 27.975C118.945 30.48 120.085 31.59 122.44 31.59C124.48 31.59 125.455 30.78 125.455 29.235V29.04H127.24V29.235C127.24 31.65 125.275 33.15 122.425 33.15ZM137.284 33H128.179V31.545L134.734 24.525V24.405H128.374V22.95H137.119V24.405L130.444 31.425V31.545H137.284V33ZM146.566 33H138.526V22.95H146.566V24.405H140.146V27.225H146.341V28.665H140.146V31.545H146.566V33ZM152.448 33.15C149.493 33.15 147.528 31.11 147.528 27.975C147.528 24.84 149.643 22.8 152.853 22.8C155.703 22.8 157.683 24.24 157.683 26.565V26.685H155.898V26.565C155.898 25.125 154.893 24.345 152.808 24.345C150.393 24.345 149.238 25.47 149.238 27.975C149.238 30.48 150.378 31.59 152.733 31.59C155.133 31.59 156.078 30.93 156.078 29.235V29.1H152.358V27.87H157.683V33H156.213V30.825H156.108C155.688 32.295 154.413 33.15 152.448 33.15ZM164.854 22.05H163.144L165.064 20.145H167.329L164.854 22.05ZM163.984 33.15C160.834 33.15 158.749 31.11 158.749 27.975C158.749 24.84 160.834 22.8 163.984 22.8C167.164 22.8 169.234 24.84 169.234 27.975C169.234 31.11 167.164 33.15 163.984 33.15ZM163.984 31.59C166.369 31.59 167.524 30.48 167.524 27.975C167.524 25.47 166.369 24.345 163.984 24.345C161.599 24.345 160.459 25.47 160.459 27.975C160.459 30.48 161.599 31.59 163.984 31.59ZM176.266 26.865L172.831 28.155V31.545H179.026V33H171.211V28.77L169.831 29.295V27.78L171.211 27.255V22.95H172.831V26.64L176.266 25.35V26.865ZM185.229 33H183.624V29.535L179.214 22.95H181.194L183.564 26.52L184.404 27.795H184.524L185.349 26.52L187.704 22.95H189.699L185.229 29.565V33Z" fill="white"/>
<path d="M205.922 33.8229L204.744 32.6444L211.815 25.5733L205.333 25.5733V23.8998H214.667V33.2336H212.993L212.993 26.7518L205.922 33.8229Z" fill="white"/>
</svg>
