<svg width="260" height="56" viewBox="0 0 260 56" fill="none" xmlns="http://www.w3.org/2000/svg">
<rect width="260" height="56" rx="28" fill="#316FAF"/>
<path d="M37.25 32.5H34.865L32.21 22.45H34.01L35.645 28.81L36.095 30.94H36.215L36.755 28.81L38.78 22.45H41.135L43.295 28.81L43.865 30.94H43.985L44.405 28.81L45.905 22.45H47.675L45.155 32.5H42.77L40.745 26.65L40.01 24.07H39.875L39.155 26.65L37.25 32.5ZM50.2489 32.5H48.6289V22.45H50.2489V32.5ZM59.564 28.165H53.369V31.045H59.789V32.5L59.144 33.31C58.964 33.55 58.859 33.73 58.859 33.91C58.859 34.135 58.994 34.285 59.354 34.285H60.239V35.305H59.039C58.049 35.305 57.599 34.915 57.599 34.27C57.599 33.73 57.944 33.37 58.289 32.98L58.724 32.5H51.749V22.45H59.789V23.905H53.369V26.725H59.564V28.165ZM65.9408 32.65C62.8208 32.65 60.7508 30.61 60.7508 27.475C60.7508 24.34 62.8208 22.3 65.9408 22.3C68.7758 22.3 70.7558 23.8 70.7558 26.2V26.41H68.9708V26.2C68.9708 24.67 67.9958 23.845 65.9558 23.845C63.6008 23.845 62.4608 24.97 62.4608 27.475C62.4608 29.98 63.6008 31.09 65.9558 31.09C67.9958 31.09 68.9708 30.28 68.9708 28.735V28.54H70.7558V28.735C70.7558 31.15 68.7908 32.65 65.9408 32.65ZM79.9892 32.5H71.9492V22.45H79.9892V23.905H73.5692V26.725H79.7642V28.165H73.5692V31.045H79.9892V32.5ZM85.031 32.65C81.986 32.65 80.801 31.045 80.801 28.675V28.21H82.511V28.69C82.511 30.34 83.066 31.09 85.031 31.09C86.996 31.09 87.581 30.355 87.581 28.765V22.45H89.276V28.75C89.276 31.06 88.106 32.65 85.031 32.65ZM94.8973 32.5H93.2773V22.45H98.1973C100.432 22.45 101.962 23.725 101.962 25.96C101.962 28.18 100.432 29.47 98.1973 29.47H94.8973V32.5ZM98.0473 23.905H94.8973V28.015H98.0473C99.5623 28.015 100.342 27.445 100.342 25.96C100.342 24.475 99.5623 23.905 98.0473 23.905ZM107.866 32.65C104.716 32.65 102.631 30.61 102.631 27.475C102.631 24.34 104.716 22.3 107.866 22.3C111.046 22.3 113.116 24.34 113.116 27.475C113.116 30.61 111.046 32.65 107.866 32.65ZM107.866 31.09C110.251 31.09 111.406 29.98 111.406 27.475C111.406 24.97 110.251 23.845 107.866 23.845C105.481 23.845 104.341 24.97 104.341 27.475C104.341 29.98 105.481 31.09 107.866 31.09ZM115.933 32.5H114.313V22.45H119.533C121.813 22.45 123.223 23.53 123.223 25.405C123.223 27.07 122.128 28.09 120.238 28.195V28.3C121.018 28.51 121.378 28.96 121.738 29.59L123.418 32.5H121.558L119.953 29.725C119.503 28.93 119.038 28.6 117.778 28.6H115.933V32.5ZM115.933 23.905V27.355H119.518C120.868 27.355 121.543 26.89 121.543 25.63C121.543 24.4 120.868 23.905 119.518 23.905H115.933ZM125.441 32.5H123.641L128.126 22.45H130.406L134.891 32.5H133.061L131.906 29.89H126.596L125.441 32.5ZM128.606 25.375L127.241 28.435H131.261L129.896 25.375L129.311 23.95H129.191L128.606 25.375ZM140.306 32.5H135.731V22.45H140.306C143.426 22.45 145.391 24.37 145.391 27.475C145.391 30.58 143.426 32.5 140.306 32.5ZM140.306 23.905H137.336V31.045H140.306C142.631 31.045 143.681 30.055 143.681 27.475C143.681 24.895 142.631 23.905 140.306 23.905ZM148.218 32.5H146.598V22.45H148.338L152.838 28.33L154.143 30.205H154.263L154.188 28.39V22.45H155.808V32.5H154.068L149.538 26.635L148.278 24.865H148.158L148.218 26.605V32.5ZM158.926 32.5H157.306V22.45H158.926V32.5ZM162.046 32.5H160.426V22.45H162.046V26.74H165.091L168.031 22.45H169.951L166.441 27.415L169.936 32.5H168.016L165.121 28.3H162.046V32.5ZM176.617 21.55H174.907L176.827 19.645H179.092L176.617 21.55ZM175.747 32.65C172.597 32.65 170.512 30.61 170.512 27.475C170.512 24.34 172.597 22.3 175.747 22.3C178.927 22.3 180.997 24.34 180.997 27.475C180.997 30.61 178.927 32.65 175.747 32.65ZM175.747 31.09C178.132 31.09 179.287 29.98 179.287 27.475C179.287 24.97 178.132 23.845 175.747 23.845C173.362 23.845 172.222 24.97 172.222 27.475C172.222 29.98 173.362 31.09 175.747 31.09ZM186.693 32.5H184.308L181.653 22.45H183.453L185.088 28.81L185.538 30.94H185.658L186.198 28.81L188.223 22.45H190.578L192.738 28.81L193.308 30.94H193.428L193.848 28.81L195.348 22.45H197.118L194.598 32.5H192.213L190.188 26.65L189.453 24.07H189.318L188.598 26.65L186.693 32.5Z" fill="white"/>
<path d="M213.922 33.3229L212.744 32.1444L219.815 25.0733L213.333 25.0733V23.3998H222.667V32.7336H220.993L220.993 26.2518L213.922 33.3229Z" fill="white"/>
</svg>
