<svg width="246" height="56" viewBox="0 0 246 56" fill="none" xmlns="http://www.w3.org/2000/svg">
<rect width="246" height="56" rx="28" fill="#316FAF"/>
<path d="M34.37 32.5H32.75V22.45H34.49L38.99 28.33L40.295 30.205H40.415L40.34 28.39V22.45H41.96V32.5H40.22L35.69 26.635L34.43 24.865H34.31L34.37 26.605V32.5ZM44.508 32.5H42.708L47.193 22.45H49.473L53.958 32.5H52.128L50.973 29.89H45.663L44.508 32.5ZM47.673 25.375L46.308 28.435H50.328L48.963 25.375L48.378 23.95H48.258L47.673 25.375ZM58.923 32.65C55.923 32.65 54.393 31.33 54.393 29.215V29.125H56.013V29.365C56.013 30.565 56.718 31.165 58.923 31.165C60.843 31.165 61.518 30.745 61.518 29.8C61.518 28.93 61.008 28.6 59.733 28.36L57.273 27.955C55.578 27.655 54.378 26.875 54.378 25.225C54.378 23.77 55.578 22.3 58.698 22.3C61.638 22.3 62.973 23.77 62.973 25.735V25.825H61.368V25.63C61.368 24.4 60.633 23.785 58.548 23.785C56.718 23.785 55.998 24.235 55.998 25.135C55.998 26.005 56.508 26.29 57.693 26.545L60.138 26.965C62.148 27.325 63.138 28.24 63.138 29.71C63.138 31.24 61.893 32.65 58.923 32.65ZM73.1381 32.5H64.0331V31.045L70.5881 24.025V23.905H64.2281V22.45H72.9731V23.905L66.2981 30.925V31.045H73.1381V32.5ZM82.4209 32.5H74.3809V22.45H82.4209V23.905H76.0009V26.725H82.1959V28.165H76.0009V31.045H82.4209V32.5ZM87.8661 32.5H86.2461V22.45H87.8661V32.5ZM90.9862 32.5H89.3662V22.45H91.1062L95.6062 28.33L96.9112 30.205H97.0312L96.9562 28.39V22.45H98.5762V32.5H96.8362L92.3062 26.635L91.0462 24.865H90.9262L90.9862 26.605V32.5ZM104.574 32.5H102.189L99.5342 22.45H101.334L102.969 28.81L103.419 30.94H103.539L104.079 28.81L106.104 22.45H108.459L110.619 28.81L111.189 30.94H111.309L111.729 28.81L113.229 22.45H114.999L112.479 32.5H110.094L108.069 26.65L107.334 24.07H107.199L106.479 26.65L104.574 32.5ZM123.993 32.5H115.953V22.45H123.993V23.905H117.573V26.725H123.768V28.165H117.573V31.045H123.993V32.5ZM129.47 32.65C126.47 32.65 124.94 31.33 124.94 29.215V29.125H126.56V29.365C126.56 30.565 127.265 31.165 129.47 31.165C131.39 31.165 132.065 30.745 132.065 29.8C132.065 28.93 131.555 28.6 130.28 28.36L127.82 27.955C126.125 27.655 124.925 26.875 124.925 25.225C124.925 23.77 126.125 22.3 129.245 22.3C132.185 22.3 133.52 23.77 133.52 25.735V25.825H131.915V25.63C131.915 24.4 131.18 23.785 129.095 23.785C127.265 23.785 126.545 24.235 126.545 25.135C126.545 26.005 127.055 26.29 128.24 26.545L130.685 26.965C132.695 27.325 133.685 28.24 133.685 29.71C133.685 31.24 132.44 32.65 129.47 32.65ZM139.83 32.5H138.225V23.905H134.265V22.45H143.775V23.905H139.83V32.5ZM149.883 32.5H148.278V29.035L143.868 22.45H145.848L148.218 26.02L149.058 27.295H149.178L150.003 26.02L152.358 22.45H154.353L149.883 29.065V32.5ZM159.867 32.65C156.747 32.65 154.677 30.61 154.677 27.475C154.677 24.34 156.747 22.3 159.867 22.3C162.702 22.3 164.682 23.8 164.682 26.2V26.41H162.897V26.2C162.897 24.67 161.922 23.845 159.882 23.845C157.527 23.845 156.387 24.97 156.387 27.475C156.387 29.98 157.527 31.09 159.882 31.09C161.922 31.09 162.897 30.28 162.897 28.735V28.54H164.682V28.735C164.682 31.15 162.717 32.65 159.867 32.65ZM169.655 32.65C166.61 32.65 165.425 31.045 165.425 28.675V28.21H167.135V28.69C167.135 30.34 167.69 31.09 169.655 31.09C171.62 31.09 172.205 30.355 172.205 28.765V22.45H173.9V28.75C173.9 31.06 172.73 32.65 169.655 32.65ZM183.378 32.5H175.338V22.45H183.378V23.905H176.958V26.725H183.153V28.165H176.958V31.045H183.378V32.5Z" fill="white"/>
<path d="M199.922 33.3228L198.744 32.1443L205.815 25.0732L199.333 25.0732V23.3998H208.667V32.7336H206.993L206.993 26.2518L199.922 33.3228Z" fill="white"/>
</svg>
