<svg width="175" height="56" viewBox="0 0 175 56" fill="none" xmlns="http://www.w3.org/2000/svg">
<rect x="0.5" y="0.5" width="174" height="55" rx="27.5" fill="#FEFEFE"/>
<rect x="0.5" y="0.5" width="174" height="55" rx="27.5" stroke="#D3E0EB"/>
<path d="M34.37 32.5H32.75V22.45H37.67C39.905 22.45 41.435 23.725 41.435 25.96C41.435 28.18 39.905 29.47 37.67 29.47H34.37V32.5ZM37.52 23.905H34.37V28.015H37.52C39.035 28.015 39.815 27.445 39.815 25.96C39.815 24.475 39.035 23.905 37.52 23.905ZM47.3383 32.65C44.1883 32.65 42.1033 30.61 42.1033 27.475C42.1033 24.34 44.1883 22.3 47.3383 22.3C50.5183 22.3 52.5883 24.34 52.5883 27.475C52.5883 30.61 50.5183 32.65 47.3383 32.65ZM47.3383 31.09C49.7233 31.09 50.8783 29.98 50.8783 27.475C50.8783 24.97 49.7233 23.845 47.3383 23.845C44.9533 23.845 43.8133 24.97 43.8133 27.475C43.8133 29.98 44.9533 31.09 47.3383 31.09ZM62.6352 32.5H53.5302V31.045L60.0852 24.025V23.905H53.7252V22.45H62.4702V23.905L55.7952 30.925V31.045H62.6352V32.5ZM65.4979 32.5H63.8779V22.45H65.6179L70.1179 28.33L71.4229 30.205H71.5429L71.4679 28.39V22.45H73.0879V32.5H71.3479L66.8179 26.635L65.5579 24.865H65.4379L65.4979 26.605V32.5ZM75.6359 32.5H73.8359L78.3209 22.45H80.6009L85.0859 32.5H83.2559L82.1009 29.89H76.7909L75.6359 32.5ZM78.8009 25.375L77.4359 28.435H81.4559L80.0909 25.375L79.5059 23.95H79.3859L78.8009 25.375ZM89.6159 32.65C86.5709 32.65 85.3859 31.045 85.3859 28.675V28.21H87.0959V28.69C87.0959 30.34 87.6509 31.09 89.6159 31.09C91.5809 31.09 92.1659 30.355 92.1659 28.765V22.45H93.8609V28.75C93.8609 31.06 92.6909 32.65 89.6159 32.65ZM96.9188 32.5H95.2988V22.45H97.5038L100.399 28.27L101.314 30.355H101.434L102.319 28.27L105.184 22.45H107.389V32.5H105.769V26.335L105.829 24.88H105.709L105.094 26.335L102.319 31.9H100.369L97.5938 26.335L96.9788 24.88H96.8588L96.9188 26.335V32.5ZM114.053 32.5H112.448V29.035L108.038 22.45H110.018L112.388 26.02L113.228 27.295H113.348L114.173 26.02L116.528 22.45H118.523L114.053 29.065V32.5ZM125.925 32.65C122.925 32.65 121.395 31.33 121.395 29.215V29.125H123.015V29.365C123.015 30.565 123.72 31.165 125.925 31.165C127.845 31.165 128.52 30.745 128.52 29.8C128.52 28.93 128.01 28.6 126.735 28.36L124.275 27.955C122.58 27.655 121.38 26.875 121.38 25.225C121.38 23.77 122.58 22.3 125.7 22.3C128.64 22.3 129.975 23.77 129.975 25.735V25.825H128.37V25.63C128.37 24.4 127.635 23.785 125.55 23.785C123.72 23.785 123 24.235 123 25.135C123 26.005 123.51 26.29 124.695 26.545L127.14 26.965C129.15 27.325 130.14 28.24 130.14 29.71C130.14 31.24 128.895 32.65 125.925 32.65ZM132.91 32.5H131.29V22.45H132.91V32.5ZM142.225 28.165H136.03V31.045H142.45V32.5L141.805 33.31C141.625 33.55 141.52 33.73 141.52 33.91C141.52 34.135 141.655 34.285 142.015 34.285H142.9V35.305H141.7C140.71 35.305 140.26 34.915 140.26 34.27C140.26 33.73 140.605 33.37 140.95 32.98L141.385 32.5H134.41V22.45H142.45V23.905H136.03V26.725H142.225V28.165Z" fill="#11273D"/>
</svg>
