<svg width="252" height="56" viewBox="0 0 252 56" fill="none" xmlns="http://www.w3.org/2000/svg">
<rect width="252" height="56" rx="28" fill="#316FAF"/>
<path d="M37.25 32.5H34.865L32.21 22.45H34.01L35.645 28.81L36.095 30.94H36.215L36.755 28.81L38.78 22.45H41.135L43.295 28.81L43.865 30.94H43.985L44.405 28.81L45.905 22.45H47.675L45.155 32.5H42.77L40.745 26.65L40.01 24.07H39.875L39.155 26.65L37.25 32.5ZM53.7889 32.5H52.1839V29.035L47.7739 22.45H49.7539L52.1239 26.02L52.9639 27.295H53.0839L53.9089 26.02L56.2639 22.45H58.2589L53.7889 29.065V32.5ZM63.7578 21.55H62.0328L63.9528 19.645H66.2178L63.7578 21.55ZM63.0978 32.65C60.0978 32.65 58.5678 31.33 58.5678 29.215V29.125H60.1878V29.365C60.1878 30.565 60.8928 31.165 63.0978 31.165C65.0178 31.165 65.6928 30.745 65.6928 29.8C65.6928 28.93 65.1828 28.6 63.9078 28.36L61.4478 27.955C59.7528 27.655 58.5528 26.875 58.5528 25.225C58.5528 23.77 59.7528 22.3 62.8728 22.3C65.8128 22.3 67.1478 23.77 67.1478 25.735V25.825H65.5428V25.63C65.5428 24.4 64.8078 23.785 62.7228 23.785C60.8928 23.785 60.1728 24.235 60.1728 25.135C60.1728 26.005 60.6828 26.29 61.8678 26.545L64.3128 26.965C66.3228 27.325 67.3128 28.24 67.3128 29.71C67.3128 31.24 66.0678 32.65 63.0978 32.65ZM76.2779 32.5H68.4629V22.45H70.0829V31.045H76.2779V32.5ZM78.9452 32.5H77.3252V22.45H78.9452V32.5ZM84.2253 32.65C81.1803 32.65 79.9953 31.045 79.9953 28.675V28.21H81.7053V28.69C81.7053 30.34 82.2603 31.09 84.2253 31.09C86.1903 31.09 86.7753 30.355 86.7753 28.765V22.45H88.4703V28.75C88.4703 31.06 87.3003 32.65 84.2253 32.65ZM96.9717 32.5H94.5867L91.9317 22.45H93.7317L95.3667 28.81L95.8167 30.94H95.9367L96.4767 28.81L98.5017 22.45H100.857L103.017 28.81L103.587 30.94H103.707L104.127 28.81L105.627 22.45H107.397L104.877 32.5H102.492L100.467 26.65L99.7317 24.07H99.5967L98.8767 26.65L96.9717 32.5ZM109.971 32.5H108.351V22.45H109.971V32.5ZM112.521 32.5H110.721L115.206 22.45H117.486L121.971 32.5H120.141L118.986 29.89H113.676L112.521 32.5ZM115.686 25.375L114.321 28.435H118.341L116.976 25.375L116.391 23.95H116.271L115.686 25.375ZM127.386 32.5H122.811V22.45H127.386C130.506 22.45 132.471 24.37 132.471 27.475C132.471 30.58 130.506 32.5 127.386 32.5ZM127.386 23.905H124.416V31.045H127.386C129.711 31.045 130.761 30.055 130.761 27.475C130.761 24.895 129.711 23.905 127.386 23.905ZM138.613 32.65C135.463 32.65 133.378 30.61 133.378 27.475C133.378 24.34 135.463 22.3 138.613 22.3C141.793 22.3 143.863 24.34 143.863 27.475C143.863 30.61 141.793 32.65 138.613 32.65ZM138.613 31.09C140.998 31.09 142.153 29.98 142.153 27.475C142.153 24.97 140.998 23.845 138.613 23.845C136.228 23.845 135.088 24.97 135.088 27.475C135.088 29.98 136.228 31.09 138.613 31.09ZM146.68 32.5H145.06V22.45H147.265L150.16 28.27L151.075 30.355H151.195L152.08 28.27L154.945 22.45H157.15V32.5H155.53V26.335L155.59 24.88H155.47L154.855 26.335L152.08 31.9H150.13L147.355 26.335L146.74 24.88H146.62L146.68 26.335V32.5ZM163.588 32.65C160.438 32.65 158.353 30.61 158.353 27.475C158.353 24.34 160.438 22.3 163.588 22.3C166.768 22.3 168.838 24.34 168.838 27.475C168.838 30.61 166.768 32.65 163.588 32.65ZM163.588 31.09C165.973 31.09 167.128 29.98 167.128 27.475C167.128 24.97 165.973 23.845 163.588 23.845C161.203 23.845 160.063 24.97 160.063 27.475C160.063 29.98 161.203 31.09 163.588 31.09ZM174.91 21.55H173.185L175.105 19.645H177.37L174.91 21.55ZM174.25 32.65C171.25 32.65 169.72 31.33 169.72 29.215V29.125H171.34V29.365C171.34 30.565 172.045 31.165 174.25 31.165C176.17 31.165 176.845 30.745 176.845 29.8C176.845 28.93 176.335 28.6 175.06 28.36L172.6 27.955C170.905 27.655 169.705 26.875 169.705 25.225C169.705 23.77 170.905 22.3 174.025 22.3C176.965 22.3 178.3 23.77 178.3 25.735V25.825H176.695V25.63C176.695 24.4 175.96 23.785 173.875 23.785C172.045 23.785 171.325 24.235 171.325 25.135C171.325 26.005 171.835 26.29 173.02 26.545L175.465 26.965C177.475 27.325 178.465 28.24 178.465 29.71C178.465 31.24 177.22 32.65 174.25 32.65ZM185.18 21.55H183.47L185.375 19.645H187.655L185.18 21.55ZM184.505 32.65C181.385 32.65 179.315 30.61 179.315 27.475C179.315 24.34 181.385 22.3 184.505 22.3C187.34 22.3 189.32 23.8 189.32 26.2V26.41H187.535V26.2C187.535 24.67 186.56 23.845 184.52 23.845C182.165 23.845 181.025 24.97 181.025 27.475C181.025 29.98 182.165 31.09 184.52 31.09C186.56 31.09 187.535 30.28 187.535 28.735V28.54H189.32V28.735C189.32 31.15 187.355 32.65 184.505 32.65Z" fill="white"/>
<path d="M205.922 33.3229L204.744 32.1444L211.815 25.0733L205.333 25.0733V23.3998H214.667V32.7336H212.993L212.993 26.2518L205.922 33.3229Z" fill="white"/>
</svg>
