<svg width="245" height="56" viewBox="0 0 245 56" fill="none" xmlns="http://www.w3.org/2000/svg">
<rect x="0.5" y="0.5" width="244" height="55" rx="27.5" fill="#FEFEFE"/>
<rect x="0.5" y="0.5" width="244" height="55" rx="27.5" stroke="#D3E0EB"/>
<path d="M34.37 32.5H32.75V22.45H37.67C39.905 22.45 41.435 23.725 41.435 25.96C41.435 28.18 39.905 29.47 37.67 29.47H34.37V32.5ZM37.52 23.905H34.37V28.015H37.52C39.035 28.015 39.815 27.445 39.815 25.96C39.815 24.475 39.035 23.905 37.52 23.905ZM44.0233 32.5H42.4033V22.45H47.6233C49.9033 22.45 51.3133 23.53 51.3133 25.405C51.3133 27.07 50.2183 28.09 48.3283 28.195V28.3C49.1083 28.51 49.4683 28.96 49.8283 29.59L51.5083 32.5H49.6483L48.0433 29.725C47.5933 28.93 47.1283 28.6 45.8683 28.6H44.0233V32.5ZM44.0233 23.905V27.355H47.6083C48.9583 27.355 49.6333 26.89 49.6333 25.63C49.6333 24.4 48.9583 23.905 47.6083 23.905H44.0233ZM61.3314 32.5H52.2264V31.045L58.7814 24.025V23.905H52.4214V22.45H61.1664V23.905L54.4914 30.925V31.045H61.3314V32.5ZM70.6142 32.5H62.5742V22.45H70.6142V23.905H64.1942V26.725H70.3892V28.165H64.1942V31.045H70.6142V32.5ZM75.656 32.65C72.611 32.65 71.426 31.045 71.426 28.675V28.21H73.136V28.69C73.136 30.34 73.691 31.09 75.656 31.09C77.621 31.09 78.206 30.355 78.206 28.765V22.45H79.901V28.75C79.901 31.06 78.731 32.65 75.656 32.65ZM86.0039 32.5H81.4289V22.45H86.0039C89.1239 22.45 91.0889 24.37 91.0889 27.475C91.0889 30.58 89.1239 32.5 86.0039 32.5ZM86.0039 23.905H83.0339V31.045H86.0039C88.3289 31.045 89.3789 30.055 89.3789 27.475C89.3789 24.895 88.3289 23.905 86.0039 23.905ZM97.4559 21.55H95.7459L97.6659 19.645H99.9309L97.4559 21.55ZM101.146 32.5H92.0409V31.045L98.5959 24.025V23.905H92.2359V22.45H100.981V23.905L94.3059 30.925V31.045H101.146V32.5ZM109.617 32.5H105.042V22.45H109.617C112.737 22.45 114.702 24.37 114.702 27.475C114.702 30.58 112.737 32.5 109.617 32.5ZM109.617 23.905H106.647V31.045H109.617C111.942 31.045 112.992 30.055 112.992 27.475C112.992 24.895 111.942 23.905 109.617 23.905ZM120.844 32.65C117.694 32.65 115.609 30.61 115.609 27.475C115.609 24.34 117.694 22.3 120.844 22.3C124.024 22.3 126.094 24.34 126.094 27.475C126.094 30.61 124.024 32.65 120.844 32.65ZM120.844 31.09C123.229 31.09 124.384 29.98 124.384 27.475C124.384 24.97 123.229 23.845 120.844 23.845C118.459 23.845 117.319 24.97 117.319 27.475C117.319 29.98 118.459 31.09 120.844 31.09ZM130.904 32.5H129.104L133.589 22.45H135.869L140.354 32.5H138.524L137.369 29.89H132.059L130.904 32.5ZM134.069 25.375L132.704 28.435H136.724L135.359 25.375L134.774 23.95H134.654L134.069 25.375ZM142.724 32.5H141.104V22.45H146.324C148.604 22.45 150.014 23.53 150.014 25.405C150.014 27.07 148.919 28.09 147.029 28.195V28.3C147.809 28.51 148.169 28.96 148.529 29.59L150.209 32.5H148.349L146.744 29.725C146.294 28.93 145.829 28.6 144.569 28.6H142.724V32.5ZM142.724 23.905V27.355H146.309C147.659 27.355 148.334 26.89 148.334 25.63C148.334 24.4 147.659 23.905 146.309 23.905H142.724ZM156.178 32.5H154.573V23.905H150.613V22.45H160.123V23.905H156.178V32.5ZM166.23 32.5H164.625V29.035L160.215 22.45H162.195L164.565 26.02L165.405 27.295H165.525L166.35 26.02L168.705 22.45H170.7L166.23 29.065V32.5ZM172.944 32.5H171.324V22.45H172.944V26.74H175.989L178.929 22.45H180.849L177.339 27.415L180.834 32.5H178.914L176.019 28.3H172.944V32.5ZM186.36 32.65C183.36 32.65 181.65 31.06 181.65 28.33V22.45H183.255V28.225C183.255 30.25 184.155 31.09 186.36 31.09C188.565 31.09 189.465 30.25 189.465 28.225V22.45H191.085V28.33C191.085 31.06 189.375 32.65 186.36 32.65ZM198.356 26.365L194.921 27.655V31.045H201.116V32.5H193.301V28.27L191.921 28.795V27.28L193.301 26.755V22.45H194.921V26.14L198.356 24.85V26.365ZM206.809 32.65C203.809 32.65 202.099 31.06 202.099 28.33V22.45H203.704V28.225C203.704 30.25 204.604 31.09 206.809 31.09C209.014 31.09 209.914 30.25 209.914 28.225V22.45H211.534V28.33C211.534 31.06 209.824 32.65 206.809 32.65Z" fill="#11273D"/>
</svg>
